<svg enable-background="new 0 0 575 117" viewBox="0 0 575 117" xmlns="http://www.w3.org/2000/svg"><g fill="#e01b22"><path d="m561.6 23c-5.4 0-9.8-4.4-9.8-9.8s4.4-9.8 9.8-9.8 9.8 4.4 9.8 9.8c-.1 5.4-4.5 9.8-9.8 9.8zm0-17.9c-4.5 0-8.1 3.6-8.1 8.1s3.7 8.1 8.1 8.1c4.5 0 8.1-3.6 8.1-8.1-.1-4.5-3.7-8.1-8.1-8.1z"/><path d="m563.3 17.9-1.8-3.5h-1.6v3.5h-1.7v-9.3h3.4c1.2 0 2.1.2 2.9 1.1.4.6.6 1.2.6 1.8 0 1.2-.7 2.3-1.9 2.6l2.1 3.8zm-1.7-7.8c-.6 0-1.1 0-1.6 0v2.9h1.1c1.1 0 2.3-.1 2.3-1.5-.1-1-.9-1.4-1.8-1.4z"/><path d="m47.1 96c-12.5 0-19.9-10.2-19.9-24.3 0-15.8 8.7-24.4 19.6-24.4s14.9 5.1 16.3 10.3l18.5-4.7c-4.1-9.2-14.2-22.3-34.2-22.3-22.4-.2-39.8 17.4-39.8 41.5 0 24.9 17.2 41.5 39.2 41.5 13.8 0 29.4-7.6 35.6-24.6l-19.4-3.8c-2.5 6.4-3.9 10.8-15.9 10.8z"/><path d="m89.6 3.9h19.7v107.9h-19.7z"/><path d="m179.1 35.5c-7-4.1-14.5-5.1-22.1-5.1-5 0-22.2 0-29.8 13.8-2.5 4.5-2.8 7.8-3.1 11.6h19.4c0-1.8.3-3.6 1.9-5.6 1.9-2.5 4.6-5.1 12.4-5.1 13.1 0 13.6 8.7 13.6 12.6-8.7 1.9-6.6 1.5-22 4.8-9.3 2-21.3 4.4-27.1 15.8-1.6 3.2-2.5 6.8-2.5 10.7 0 13.6 10.8 24.6 28.6 24.6 10.8 0 18.3-4.5 22.3-8v6.1h19.4v-51.4c0-8.5-1.7-19.1-11-24.8zm-7.8 45.4c0 2.4 0 4.8-1.1 7.1-2 4.7-8.9 9.4-18.5 9.4-7.5 0-12.7-3.2-12.7-9.3 0-8.4 9.5-10.3 16.2-11.7 9-1.8 16.1-3.3 16.1-3.3z"/><path d="m314.2 35.5c-7-4.1-14.5-5.1-22.1-5.1-5 0-22.2 0-29.8 13.8-2.5 4.5-2.8 7.8-3.1 11.6h19.4c0-1.8.3-3.6 1.9-5.6 1.9-2.5 4.6-5.1 12.4-5.1 13.1 0 13.6 8.7 13.6 12.6-8.7 1.9-6.6 1.5-22 4.8-9.3 2-21.4 4.4-27.1 15.8-1.6 3.2-2.5 6.8-2.5 10.7 0 13.6 10.8 24.6 28.6 24.6 10.8 0 18.3-4.5 22.3-8v6.1h19.4v-51.5c-.1-8.4-1.7-19-11-24.7zm-7.9 45.4c0 2.4 0 4.8-1.1 7.1-2 4.7-8.9 9.4-18.5 9.4-7.5 0-12.7-3.2-12.7-9.3 0-8.4 9.5-10.3 16.2-11.7 8.9-1.8 16.1-3.3 16.1-3.3z"/><path d="m226.4 42v-9.8h-19.7v79.6h19.7v-32.4c0-19.6 4.4-23.2 8.2-25.8 6.1-4.1 17.1-3 17.1-3v-19.3c-19.8 0-25.3 10.7-25.3 10.7z"/><path d="m543.5 96.8c-9.1 0-9.1-2.9-9.1-12.8v-37.8h14.8v-14h-14.8v-28.3h-19.1v28.3h-10.7v14h10.7v40.9c0 8 0 13.1 1.3 16.3 3.7 9.7 17 10.2 21 10.2 3.1 0 6.8-.7 11.9-1.1v-15.8c-2.7.1-4.7.1-6 .1z"/><path d="m382.5 30.5c-7.8 0-16.1 3.7-21.9 9.5v-7.8h-19v79.6h19v-40.1c0-.5 0-8.8 0-9.4 0-8.3 6.4-15.5 16.5-15.5 8.7 0 15 5.4 15 15.8v49.2h18.5v-50.4c0-4.3 0-8.5-1.3-12.6-3.7-12.1-14.8-18.3-26.8-18.3z"/><path d="m460.9 30.5c-22.5.3-39 16.7-39 40.9 0 1.6.3 4.9.3 4.9 2.3 25.5 21.9 37.4 41.3 37.4 16.1 0 26-6 35.8-19.2l-13.7-10.3c-2.4 3.3-9.5 12.2-22.4 12.2-12.4 0-20.9-8.3-23.2-20.1l59.3-.1c0-28.1-15.2-45.7-38.4-45.7zm-19.1 31.2s2.3-16.7 18.7-16.7c16.3 0 19.7 16.7 19.7 16.7z"/></g></svg>